<svg version="1.1" xmlns="http://www.w3.org/2000/svg" xmlns:xlink="http://www.w3.org/1999/xlink" x="0px" y="0px" viewBox="0 0 1000 1000" enable-background="new 0 0 1000 1000" xml:space="preserve">
    <g>
        <g transform="translate(0.000000,511.000000) scale(0.100000,-0.100000)">
            <path d="M7886.7,4730.1c-109.2-54.6-222.5-155.4-627.7-552.1C6988.1,3913.5,5581.5,2542.5,4135,1136L1502.4-1423.2l953.1-953.1c522.7-522.8,953.1-951,957.3-951c2.1,0,1377.2,1324.7,3052.5,2945.4c1677.4,1618.6,3126,3016.8,3222.6,3107.1c243.5,233,264.5,327.5,128.1,585.7c-84,157.5-230.9,317-579.4,631.9c-157.5,140.7-409.4,371.6-560.5,514.4c-149.1,142.8-308.6,277.1-350.6,300.2C8203.7,4820.4,8048.3,4809.9,7886.7,4730.1z" fill="white"/>
            <path d="M1147.6-2050.9C1065.7-2210.5,100-4253.2,100-4265.8c0-8.4,52.5-84,117.6-167.9c88.2-117.6,126-153.2,151.2-142.8c18.9,6.3,568.9,216.2,1221.9,466.1c652.9,247.7,1209.3,459.7,1236.5,472.4c50.4,18.9,29.4,42-440.9,512.2c-270.8,270.8-648.7,644.5-841.9,829.3l-350.6,335.9L1147.6-2050.9z" fill="white" />
        </g>
    </g>
</svg>