<svg fill="#000000" version="1.1" xmlns="http://www.w3.org/2000/svg" xmlns:xlink="http://www.w3.org/1999/xlink" 
	 viewBox="0 0 290 290" xml:space="preserve">
	<g>
		<path d="M287.602,53.599l-51.2-51.2C234.862,0.863,232.777,0,230.602,0H8.199C3.668,0,0,3.668,0,8.199v273.602
			C0,286.332,3.668,290,8.199,290h273.602c4.531,0,8.199-3.668,8.199-8.199V59.397C290,57.221,289.135,55.138,287.602,53.599z
			M38.456,34.678c0-3.262,2.651-5.916,5.917-5.916h160.975c3.27,0,5.918,2.654,5.918,5.916v78.323c0,3.269-2.647,5.915-5.918,5.915
			H44.373c-3.266,0-5.917-2.646-5.917-5.915V34.678z M251.544,247.513c0,4.03-3.27,7.298-7.296,7.298H45.752
			c-4.026,0-7.296-3.268-7.296-7.298V150.94c0-4.028,3.27-7.295,7.296-7.295h198.496c4.026,0,7.296,3.267,7.296,7.295V247.513z" fill="black" />
		<rect x="173.564" y="39.039" width="24.588" height="69.604" fill="black" />
		<rect x="59.489" y="174.643" width="171.021" height="8.195" fill="black" />
		<rect x="59.489" y="215.62" width="171.021" height="8.195" fill="black"  />
	</g>
</svg>