<svg width="19" height="18" viewBox="0 0 19 18" fill="none" xmlns="http://www.w3.org/2000/svg">
    <path d="M1.44313 0.0975597L18.4274 8.10423C18.5989 8.18511 18.7436 8.31214 18.8449 8.47064C18.9462 8.62915 19 8.81266 19 9C19 9.18734 18.9462 9.37085 18.8449 9.52936C18.7436 9.68786 18.5989 9.81489 18.4274 9.89577L1.44313 17.9024C1.26895 17.9847 1.07444 18.0159 0.882763 17.9923C0.691091 17.9688 0.510338 17.8914 0.362031 17.7694C0.213725 17.6474 0.104116 17.486 0.04626 17.3044C-0.0115958 17.1227 -0.0152604 16.9285 0.0357027 16.7449L1.73494 10.6052C1.75574 10.53 1.79855 10.4624 1.85804 10.411C1.91753 10.3596 1.99106 10.3266 2.06946 10.316L10.2996 9.21411C10.3339 9.20936 10.3664 9.19598 10.394 9.17524C10.4215 9.1545 10.4431 9.12712 10.4568 9.09573L10.4713 9.04568C10.4777 9.00133 10.4686 8.95615 10.4457 8.9175C10.4227 8.87885 10.3871 8.84899 10.3448 8.83276L10.3004 8.82085L2.07833 7.71971C2.00007 7.70905 1.92671 7.67596 1.86738 7.62454C1.80805 7.57313 1.76536 7.50566 1.74461 7.43052L0.0357027 1.2551C-0.0152604 1.07147 -0.0115958 0.877273 0.04626 0.695637C0.104116 0.514001 0.213725 0.352582 0.362031 0.230607C0.510338 0.108632 0.691091 0.0312416 0.882763 0.00765314C1.07444 -0.0159353 1.26895 0.0152726 1.44313 0.0975597Z" fill="white">
    </path>
    <path d="M1.44313 0.0975597L18.4274 8.10423C18.5989 8.18511 18.7436 8.31214 18.8449 8.47064C18.9462 8.62915 19 8.81266 19 9C19 9.18734 18.9462 9.37085 18.8449 9.52936C18.7436 9.68786 18.5989 9.81489 18.4274 9.89577L1.44313 17.9024C1.26895 17.9847 1.07444 18.0159 0.882763 17.9923C0.691091 17.9688 0.510338 17.8914 0.362031 17.7694C0.213725 17.6474 0.104116 17.486 0.04626 17.3044C-0.0115958 17.1227 -0.0152604 16.9285 0.0357027 16.7449L1.73494 10.6052C1.75574 10.53 1.79855 10.4624 1.85804 10.411C1.91753 10.3596 1.99106 10.3266 2.06946 10.316L10.2996 9.21411C10.3339 9.20936 10.3664 9.19598 10.394 9.17524C10.4215 9.1545 10.4431 9.12712 10.4568 9.09573L10.4713 9.04568C10.4777 9.00133 10.4686 8.95615 10.4457 8.9175C10.4227 8.87885 10.3871 8.84899 10.3448 8.83276L10.3004 8.82085L2.07833 7.71971C2.00007 7.70905 1.92671 7.67596 1.86738 7.62454C1.80805 7.57313 1.76536 7.50566 1.74461 7.43052L0.0357027 1.2551C-0.0152604 1.07147 -0.0115958 0.877273 0.04626 0.695637C0.104116 0.514001 0.213725 0.352582 0.362031 0.230607C0.510338 0.108632 0.691091 0.0312416 0.882763 0.00765314C1.07444 -0.0159353 1.26895 0.0152726 1.44313 0.0975597Z" fill="black" fill-opacity="0.3">
    </path>
</svg>
